# xmcd
#
# Track frame offsets:
#	150
#	9921
#	22464
#	30580
#	42525
#	52521
#	64776
#	75570
#	85670
#	96890
#	106787
#	114837
#	123186
#	133834
#	146328
#	162372
#
# Disc length: 2296 seconds
#
# Revision: 1
# Processed by: cddbd v1.5.2PL0 Copyright (c) Steve Scherf et al.
# Submitted via: audiograbber 1.83.01
#
DISCID=c008f610
DTITLE=JOHNNY CASH - Feel The Groove - CD1
DYEAR=1900
DGENRE=Country
TTITLE0=Ballad Of A Teenage Queen
TTITLE1=Folsom Prison Blues
TTITLE2=Guess Things Happen That Way
TTITLE3=You're The Nearest Thing To Heaven
TTITLE4=Get Rhythm
TTITLE5=Next In Line
TTITLE6=I Heard That Lonesome Whistle Blow
TTITLE7=Straight A's In Love
TTITLE8=Big River
TTITLE9=Hey Porter
TTITLE10=Wreck Of The Old '97
TTITLE11=Country Boy
TTITLE12=Train Of Love
TTITLE13=Ring Of Fire
TTITLE14=A Boy Named Sue
TTITLE15=If I Were A Carpenter
EXTD=
EXTT0=
EXTT1=
EXTT2=
EXTT3=
EXTT4=
EXTT5=
EXTT6=
EXTT7=
EXTT8=
EXTT9=
EXTT10=
EXTT11=
EXTT12=
EXTT13=
EXTT14=
EXTT15=
PLAYORDER=
